<mxfile host="app.diagrams.net" agent="Mozilla/5.0 (Macintosh; Intel Mac OS X 10_15_7) AppleWebKit/537.36 (KHTML, like Gecko) Chrome/135.0.0.0 Safari/537.36" version="26.2.13">
  <diagram name="第 1 页" id="l4sXVZV-vA7ZLvZesJ2g">
    <mxGraphModel dx="1428" dy="647" grid="1" gridSize="10" guides="1" tooltips="1" connect="1" arrows="1" fold="1" page="1" pageScale="1" pageWidth="827" pageHeight="1169" math="0" shadow="0">
      <root>
        <mxCell id="0" />
        <mxCell id="1" parent="0" />
        <mxCell id="S5Sz5O8gEk4Sw891k7_R-10" style="edgeStyle=orthogonalEdgeStyle;rounded=0;orthogonalLoop=1;jettySize=auto;html=1;exitX=0.5;exitY=1;exitDx=0;exitDy=0;" edge="1" parent="1" source="S5Sz5O8gEk4Sw891k7_R-1" target="S5Sz5O8gEk4Sw891k7_R-4">
          <mxGeometry relative="1" as="geometry" />
        </mxCell>
        <mxCell id="S5Sz5O8gEk4Sw891k7_R-1" value="Showroom Url" style="rounded=1;whiteSpace=wrap;html=1;" vertex="1" parent="1">
          <mxGeometry x="80" y="120" width="120" height="40" as="geometry" />
        </mxCell>
        <mxCell id="S5Sz5O8gEk4Sw891k7_R-14" style="edgeStyle=orthogonalEdgeStyle;rounded=0;orthogonalLoop=1;jettySize=auto;html=1;exitX=0.5;exitY=1;exitDx=0;exitDy=0;entryX=0.5;entryY=0;entryDx=0;entryDy=0;" edge="1" parent="1" source="S5Sz5O8gEk4Sw891k7_R-2" target="S5Sz5O8gEk4Sw891k7_R-5">
          <mxGeometry relative="1" as="geometry" />
        </mxCell>
        <mxCell id="S5Sz5O8gEk4Sw891k7_R-20" style="rounded=0;orthogonalLoop=1;jettySize=auto;html=1;exitX=0.5;exitY=1;exitDx=0;exitDy=0;entryX=0.5;entryY=0;entryDx=0;entryDy=0;dashed=1;dashPattern=8 8;" edge="1" parent="1" source="S5Sz5O8gEk4Sw891k7_R-2" target="S5Sz5O8gEk4Sw891k7_R-4">
          <mxGeometry relative="1" as="geometry" />
        </mxCell>
        <mxCell id="S5Sz5O8gEk4Sw891k7_R-2" value="Static PSERP Url" style="rounded=1;whiteSpace=wrap;html=1;" vertex="1" parent="1">
          <mxGeometry x="320" y="120" width="120" height="40" as="geometry" />
        </mxCell>
        <mxCell id="S5Sz5O8gEk4Sw891k7_R-3" value="Nginx" style="rounded=0;whiteSpace=wrap;html=1;" vertex="1" parent="1">
          <mxGeometry x="80" y="200" width="360" height="40" as="geometry" />
        </mxCell>
        <mxCell id="S5Sz5O8gEk4Sw891k7_R-11" style="edgeStyle=orthogonalEdgeStyle;rounded=0;orthogonalLoop=1;jettySize=auto;html=1;exitX=0.5;exitY=1;exitDx=0;exitDy=0;entryX=0.5;entryY=0;entryDx=0;entryDy=0;" edge="1" parent="1" source="S5Sz5O8gEk4Sw891k7_R-4" target="S5Sz5O8gEk4Sw891k7_R-6">
          <mxGeometry relative="1" as="geometry" />
        </mxCell>
        <mxCell id="S5Sz5O8gEk4Sw891k7_R-4" value="v-landingpage-front" style="rounded=1;whiteSpace=wrap;html=1;" vertex="1" parent="1">
          <mxGeometry x="80" y="280" width="120" height="40" as="geometry" />
        </mxCell>
        <mxCell id="S5Sz5O8gEk4Sw891k7_R-13" style="edgeStyle=orthogonalEdgeStyle;rounded=0;orthogonalLoop=1;jettySize=auto;html=1;exitX=0.5;exitY=1;exitDx=0;exitDy=0;entryX=0.5;entryY=0;entryDx=0;entryDy=0;" edge="1" parent="1" source="S5Sz5O8gEk4Sw891k7_R-5" target="S5Sz5O8gEk4Sw891k7_R-7">
          <mxGeometry relative="1" as="geometry" />
        </mxCell>
        <mxCell id="S5Sz5O8gEk4Sw891k7_R-5" value="search-front" style="rounded=1;whiteSpace=wrap;html=1;" vertex="1" parent="1">
          <mxGeometry x="320" y="280" width="120" height="40" as="geometry" />
        </mxCell>
        <mxCell id="S5Sz5O8gEk4Sw891k7_R-12" style="edgeStyle=orthogonalEdgeStyle;rounded=0;orthogonalLoop=1;jettySize=auto;html=1;exitX=0.5;exitY=1;exitDx=0;exitDy=0;entryX=0.5;entryY=0;entryDx=0;entryDy=0;" edge="1" parent="1" source="S5Sz5O8gEk4Sw891k7_R-6" target="S5Sz5O8gEk4Sw891k7_R-8">
          <mxGeometry relative="1" as="geometry" />
        </mxCell>
        <mxCell id="S5Sz5O8gEk4Sw891k7_R-6" value="traffic-mesh-backend" style="rounded=1;whiteSpace=wrap;html=1;" vertex="1" parent="1">
          <mxGeometry x="80" y="360" width="120" height="40" as="geometry" />
        </mxCell>
        <mxCell id="S5Sz5O8gEk4Sw891k7_R-7" value="Ocean API" style="rounded=1;whiteSpace=wrap;html=1;" vertex="1" parent="1">
          <mxGeometry x="320" y="360" width="120" height="40" as="geometry" />
        </mxCell>
        <mxCell id="S5Sz5O8gEk4Sw891k7_R-8" value="Ocean API" style="rounded=1;whiteSpace=wrap;html=1;" vertex="1" parent="1">
          <mxGeometry x="80" y="440" width="120" height="40" as="geometry" />
        </mxCell>
        <mxCell id="S5Sz5O8gEk4Sw891k7_R-15" value="" style="endArrow=classic;html=1;rounded=0;" edge="1" parent="1">
          <mxGeometry width="50" height="50" relative="1" as="geometry">
            <mxPoint x="80" y="40" as="sourcePoint" />
            <mxPoint x="160" y="40" as="targetPoint" />
          </mxGeometry>
        </mxCell>
        <mxCell id="S5Sz5O8gEk4Sw891k7_R-16" value="Now" style="text;html=1;align=center;verticalAlign=middle;resizable=0;points=[];autosize=1;strokeColor=none;fillColor=none;" vertex="1" parent="1">
          <mxGeometry x="80" y="19" width="50" height="30" as="geometry" />
        </mxCell>
        <mxCell id="S5Sz5O8gEk4Sw891k7_R-17" value="" style="endArrow=classic;html=1;rounded=0;dashed=1;dashPattern=8 8;" edge="1" parent="1">
          <mxGeometry width="50" height="50" relative="1" as="geometry">
            <mxPoint x="80" y="80" as="sourcePoint" />
            <mxPoint x="160" y="80" as="targetPoint" />
          </mxGeometry>
        </mxCell>
        <mxCell id="S5Sz5O8gEk4Sw891k7_R-18" value="Future" style="text;html=1;align=center;verticalAlign=middle;resizable=0;points=[];autosize=1;strokeColor=none;fillColor=none;" vertex="1" parent="1">
          <mxGeometry x="80" y="58" width="60" height="30" as="geometry" />
        </mxCell>
        <mxCell id="S5Sz5O8gEk4Sw891k7_R-25" style="edgeStyle=orthogonalEdgeStyle;rounded=0;orthogonalLoop=1;jettySize=auto;html=1;exitX=0.5;exitY=1;exitDx=0;exitDy=0;entryX=0.5;entryY=0;entryDx=0;entryDy=0;" edge="1" parent="1" source="S5Sz5O8gEk4Sw891k7_R-21" target="S5Sz5O8gEk4Sw891k7_R-22">
          <mxGeometry relative="1" as="geometry" />
        </mxCell>
        <mxCell id="S5Sz5O8gEk4Sw891k7_R-21" value="PSERP Sitemap" style="rounded=1;whiteSpace=wrap;html=1;" vertex="1" parent="1">
          <mxGeometry x="600" y="120" width="120" height="40" as="geometry" />
        </mxCell>
        <mxCell id="S5Sz5O8gEk4Sw891k7_R-26" style="edgeStyle=orthogonalEdgeStyle;rounded=0;orthogonalLoop=1;jettySize=auto;html=1;exitX=0.5;exitY=1;exitDx=0;exitDy=0;entryX=0.5;entryY=0;entryDx=0;entryDy=0;" edge="1" parent="1" source="S5Sz5O8gEk4Sw891k7_R-22" target="S5Sz5O8gEk4Sw891k7_R-23">
          <mxGeometry relative="1" as="geometry" />
        </mxCell>
        <mxCell id="S5Sz5O8gEk4Sw891k7_R-22" value="Remove No Traffic Url" style="rounded=1;whiteSpace=wrap;html=1;" vertex="1" parent="1">
          <mxGeometry x="600" y="200" width="120" height="40" as="geometry" />
        </mxCell>
        <mxCell id="S5Sz5O8gEk4Sw891k7_R-27" style="edgeStyle=orthogonalEdgeStyle;rounded=0;orthogonalLoop=1;jettySize=auto;html=1;exitX=0.5;exitY=1;exitDx=0;exitDy=0;entryX=0.5;entryY=0;entryDx=0;entryDy=0;" edge="1" parent="1" source="S5Sz5O8gEk4Sw891k7_R-23" target="S5Sz5O8gEk4Sw891k7_R-24">
          <mxGeometry relative="1" as="geometry" />
        </mxCell>
        <mxCell id="S5Sz5O8gEk4Sw891k7_R-23" value="Showroom Optimize" style="rounded=1;whiteSpace=wrap;html=1;" vertex="1" parent="1">
          <mxGeometry x="600" y="280" width="120" height="40" as="geometry" />
        </mxCell>
        <mxCell id="S5Sz5O8gEk4Sw891k7_R-24" value="PSERP Url Change to Showroom Url" style="rounded=1;whiteSpace=wrap;html=1;" vertex="1" parent="1">
          <mxGeometry x="600" y="360" width="120" height="40" as="geometry" />
        </mxCell>
      </root>
    </mxGraphModel>
  </diagram>
</mxfile>
